<?xml version="1.0" encoding="UTF-8" standalone="no"?>
<svg
   version="1.1"
   viewBox="-5.0 -10.0 110.0 135.0"
   id="svg2"
   sodipodi:docname="datasets.svg"
   xml:space="preserve"
   inkscape:export-filename="noun-location-6762109.png"
   inkscape:export-xdpi="200"
   inkscape:export-ydpi="200"
   inkscape:version="1.3 (0e150ed6c4, 2023-07-21)"
   xmlns:inkscape="http://www.inkscape.org/namespaces/inkscape"
   xmlns:sodipodi="http://sodipodi.sourceforge.net/DTD/sodipodi-0.dtd"
   xmlns="http://www.w3.org/2000/svg"
   xmlns:svg="http://www.w3.org/2000/svg"><defs
     id="defs2"><style
       type="text/css"
       id="style1">&#10;   &#10;    .fil0 {fill:black}&#10;   &#10;  </style><clipPath
       clipPathUnits="userSpaceOnUse"
       id="clipPath9"><path
         id="path10"
         style="fill:#ff0000;fill-opacity:1;fill-rule:nonzero;stroke:none"
         d="m -0.08568,0.03315 v 328.99609 c 0.1268,0.17774 0.24668,0.38469 0.35351,0.64258 0.0759,0.18326 0.48711,0.12905 0.62696,0.23047 0.25431,0.0708 0.5121,0.12614 0.77148,0.17383 0.75597,0.0294 1.51151,0.0827 2.26563,0.14844 0.90386,0.0127 1.80767,0.0302 2.71093,0.0664 0.70597,0.0318 1.41163,0.0726 2.11719,0.11133 0.95819,-0.88073 2.40628,-1.38411 3.601563,-1.64063 0.35685,-0.0766 0.71968,-0.11622 1.080078,-0.17382 0.17977,-0.002 0.361066,-0.0132 0.541016,-0.0195 0.17995,-0.006 0.360024,-0.007 0.539062,0.01 0.316611,0.0289 0.6182,0.13251 0.923828,0.2168 0.685041,-0.42061 1.834676,-0.44688 2.466797,-0.47071 0.973501,0.0212 1.941344,-0.0295 2.896485,-0.2207 1.046015,-0.21932 2.080409,-0.48989 3.132812,-0.67773 0.833061,-0.13274 1.674299,-0.15909 2.515625,-0.13477 0.841327,0.0243 1.682338,0.10023 2.517578,0.17188 1.580898,0.15512 3.168873,0.2046 4.75586,0.25 1.323811,0.0566 2.648738,0.0255 3.972656,-0.004 1.043975,-0.02 2.086013,-0.0676 3.128906,-0.002 0.933115,0.0867 1.857353,0.3921 2.525391,1.08008 0.139053,0.1432 0.250826,0.30818 0.376953,0.46289 0.239763,0.37299 0.386268,0.77211 0.478516,1.19531 0.497944,0.42946 1.088003,0.71104 1.683593,0.97656 1.18018,0.47253 2.337698,0.98028 3.447266,1.60156 0.730364,0.44181 1.472609,0.88927 2.103516,1.47071 0.278745,0.25689 0.414628,0.4135 0.580078,0.61328 0.485542,0.0762 1.049594,0.18567 1.28125,0.4707 0.353451,0.43488 0.621898,0.99271 0.642578,1.55274 0.01455,0.39385 -0.192613,0.69962 -0.464844,0.95507 0.0066,0.27357 -0.0031,0.54886 0,0.82227 -0.207367,0.37655 -0.347558,0.80049 -0.599609,1.14453 H 332.97682 V 0.03328 Z M 17.881114,329.1269 c -0.03807,-0.0189 0.06381,0.0559 0.0957,0.084 0.01789,0.009 0.03674,0.015 0.05469,0.0234 -0.04949,-0.0364 -0.09136,-0.0782 -0.150391,-0.10742 z m -17.966794,8.33789 v 0.0176 c 0.0105,-1.2e-4 0.0209,0.002 0.0312,0.002 -0.0106,-0.008 -0.0207,-0.012 -0.0312,-0.0195 z" /></clipPath><clipPath
       clipPathUnits="userSpaceOnUse"
       id="clipPath12"><path
         id="path12"
         style="fill:#ff0000;fill-opacity:1;fill-rule:nonzero;stroke:none"
         d="m 43.043433,118.04493 c -0.06514,0.001 -0.130184,0.005 -0.195313,0.006 -0.03904,0.001 -0.07814,0.004 -0.117187,0.006 0.01121,0.0135 0.02969,0.0351 0.04102,0.0488 0.09074,-0.0192 0.181088,-0.0396 0.271484,-0.0606 z" /></clipPath><clipPath
       clipPathUnits="userSpaceOnUse"
       id="clipPath21"><path
         id="path22"
         style="fill:#ff0000;fill-opacity:1;fill-rule:nonzero;stroke:none"
         d="m 28.801245,118.85938 c 0.556441,0.0216 1.113238,0.0322 1.669922,0.0371 -0.01813,-0.0116 -0.0348,-0.0252 -0.05273,-0.0371 z m -8.585937,4.49023 c 0.0039,0.0678 0.0049,0.13539 0.002,0.20313 h 1.830078 c -0.610706,-0.0679 -1.221347,-0.13486 -1.832031,-0.20313 z m 23.33789,0.0215 c -0.31521,0.075 -0.654308,0.13125 -1.021484,0.16211 -0.08713,0.007 -0.174571,0.0123 -0.261719,0.0195 h 1.283203 z" /></clipPath><clipPath
       clipPathUnits="userSpaceOnUse"
       id="clipPath27"><path
         id="path28"
         style="fill:#ff0000;fill-opacity:1;fill-rule:nonzero;stroke:none"
         d="M 0.0593728,2.9691599 V 110.59221 c 0.5402485,-0.152 1.0940221,-0.25227 1.6503911,-0.33203 0.234225,-0.0336 0.976886,-0.12754 1.220703,-0.12696 0.301407,7e-4 0.601452,0.0351 0.902343,0.0527 0.339029,0.10019 0.701494,0.14245 1.017579,0.30078 0.720577,0.36096 1.309424,0.90365 1.695312,1.58203 0.09823,-0.0121 0.195813,-0.0296 0.294922,-0.0371 1.130125,-0.0977 2.260465,-0.12757 3.3945311,-0.0801 1.256241,0.0272 2.513339,0.0665 3.765625,0.17578 1.388657,0.13013 2.76987,0.30939 4.136719,0.5918 1.13697,0.19546 2.27905,0.35058 3.425781,0.47656 0.220355,0.0291 0.441658,0.0486 0.662109,0.0762 0.86392,-0.022 1.814834,-0.0544 2.730469,-0.0586 0.554101,-0.002 1.158819,-3e-4 1.859375,0.006 3.126427,0.0269 6.244688,0.18193 9.365235,0.35937 1.923538,0.0984 3.837218,0.31502 5.748046,0.54688 3.14236,0.3813 4.126913,2.45872 3.261719,3.88867 0.163768,0.11007 0.31783,0.23358 0.457031,0.37305 0.547748,0.54879 0.936584,1.05402 1.083985,1.82031 0.06808,0.35394 0.03397,0.72004 0.05078,1.08008 -0.09621,0.33505 -0.168446,0.6788 -0.289062,1.00586 -0.06117,0.16587 -0.163267,0.31305 -0.253907,0.46484 -0.167818,0.28105 -0.366463,0.54139 -0.574218,0.79492 h 37.50586 V 2.9691599 Z M 40.487107,123.15861 c 0.01541,0.13165 0.03263,0.26333 0.04102,0.39453 h 1.671875 c -0.0409,-0.0645 -0.08277,-0.12574 -0.123047,-0.1914 -0.357731,-0.007 -0.740282,-0.0428 -1.150391,-0.12305 -0.146151,-0.0286 -0.293175,-0.0522 -0.439453,-0.0801 z" /></clipPath></defs><sodipodi:namedview
     id="namedview2"
     pagecolor="#ffffff"
     bordercolor="#000000"
     borderopacity="0.25"
     inkscape:showpageshadow="2"
     inkscape:pageopacity="0.0"
     inkscape:pagecheckerboard="0"
     inkscape:deskcolor="#d1d1d1"
     inkscape:zoom="6.6592593"
     inkscape:cx="50.756396"
     inkscape:cy="67.199666"
     inkscape:window-width="1920"
     inkscape:window-height="1137"
     inkscape:window-x="1912"
     inkscape:window-y="-8"
     inkscape:window-maximized="1"
     inkscape:current-layer="svg2" /><path
     style="opacity:0.930192;fill:#55ffdd;fill-opacity:1;stroke:#b56ff0;stroke-width:0.150167;stroke-opacity:1"
     d="m 54.521276,97.341193 c -1.003388,-3.101069 -2.837328,-6.79131 -4.957583,-9.975613 -2.190565,-3.2899 -4.294931,-5.825242 -9.699354,-11.685793 -5.074814,-5.503123 -7.108845,-7.966388 -9.188887,-11.127983 -3.885143,-5.905287 -5.654883,-12.57505 -5.212357,-19.644231 0.612874,-9.79043 6.084796,-18.632834 14.649919,-23.673678 2.40374,-1.414677 5.477204,-2.6434 8.172579,-3.267273 3.219607,-0.745211 7.69906,-0.940823 10.880147,-0.47512 8.820289,1.291266 16.525922,6.403512 21.191471,14.059325 5.282275,8.667813 5.681424,19.940579 1.038946,29.341832 -2.132738,4.318899 -4.608873,7.570992 -11.230281,14.749557 -5.335395,5.784343 -7.484298,8.370813 -9.64149,11.604725 -2.248553,3.370875 -3.691754,6.219102 -4.895453,9.661403 -0.313,0.895112 -0.594937,1.653321 -0.626523,1.684909 -0.03159,0.03159 -0.248098,-0.53184 -0.481134,-1.25206 z m 3.818546,-27.68196 c 4.792186,-0.639993 9.496411,-3.015195 13.063349,-6.595788 8.19901,-8.230399 8.934434,-21.302207 1.719626,-30.565566 -3.259738,-4.185297 -8.151605,-7.177785 -13.647015,-8.348246 -2.085253,-0.444136 -6.373909,-0.477877 -8.569219,-0.06742 -7.177753,1.342027 -13.320258,5.928875 -16.516145,12.333248 -0.967109,1.938029 -1.731729,4.208375 -2.124111,6.307007 -0.418675,2.239258 -0.380903,6.488507 0.07675,8.634594 1.506172,7.062884 5.985535,12.937014 12.248732,16.062698 4.380805,2.186266 8.780274,2.902913 13.748029,2.239472 z"
     id="path3"
     transform="translate(-5,-10)" /><g
     id="g4"><path
       d="m48.961 94.109c-4.2305-25.844-30.777-30.551-30.777-57.289 0-17.57 14.246-31.816 31.816-31.816s31.816 14.246 31.816 31.816c0 26.738-26.566 31.469-30.777 57.301-0.19141 1.1758-1.8984 1.1602-2.0781-0.011719zm1.0391-80.316c-12.719 0-23.027 10.309-23.027 23.027s10.312 23.027 23.027 23.027c12.719 0 23.027-10.312 23.027-23.027 0-12.719-10.309-23.027-23.027-23.027zm14.793 8.2344c-13.145-13.141-35.711-3.7852-35.711 14.793 0 18.578 22.566 27.938 35.711 14.793 8.168-8.168 8.168-21.414 0-29.586zm-29.988 43.723c6.0664 6.5273 12.309 13.246 15.195 23.371 6.4531-22.652 29.707-28.234 29.707-52.301 0-16.406-13.301-29.707-29.707-29.707s-29.707 13.301-29.707 29.707c0 13.312 7.1211 20.977 14.512 28.93z"
       fill-rule="evenodd"
       id="path1"
       style="fill:#5e2e7a;fill-opacity:1" /><path
       style="opacity:0.930192;fill:#c590e4;fill-opacity:1;stroke:#b26eeb;stroke-width:0.150167;stroke-opacity:1"
       d="M 54.442111,96.680014 C 52.89705,92.255416 50.254379,87.657002 46.734061,83.267519 45.060635,81.180927 44.112448,80.103234 39.231954,74.740751 33.105601,68.009373 30.900233,65.081414 28.841244,60.945514 27.5645,58.380911 26.686586,55.815609 26.12015,52.994357 25.629112,50.548645 25.446298,45.874518 25.746392,43.438273 27.219319,31.480661 35.799914,21.489471 47.237227,18.41448 c 2.355646,-0.63333 3.985219,-0.857547 6.897923,-0.949102 4.148918,-0.130413 7.187061,0.336861 10.875618,1.672698 7.121798,2.579207 13.229643,8.115006 16.532301,14.983926 3.95239,8.22024 3.874679,17.977633 -0.210817,26.470323 -2.080136,4.324062 -4.491534,7.5089 -11.426734,15.091768 -1.548516,1.693132 -3.407727,3.754172 -4.131579,4.580089 -5.038942,5.749448 -8.243883,10.882301 -10.173374,16.293104 -0.250343,0.70203 -0.503761,1.330839 -0.563149,1.39735 -0.05939,0.06651 -0.327277,-0.507066 -0.595305,-1.274622 z m 4.580825,-27.003853 c 8.348192,-1.427195 15.302942,-7.412158 18.008382,-15.497252 1.439114,-4.300726 1.522916,-9.556197 0.222199,-13.934576 -2.300212,-7.742805 -8.037843,-13.42022 -15.934036,-15.766808 -2.034597,-0.604641 -3.397058,-0.762969 -6.543093,-0.760357 -2.173417,0.0018 -3.055313,0.06673 -4.279755,0.315075 -9.316238,1.889552 -16.361042,8.95574 -18.29696,18.352497 -0.404144,1.961677 -0.442292,6.491924 -0.07209,8.560691 0.521718,2.915439 1.87205,6.210788 3.640589,8.884489 1.335751,2.019405 4.244243,4.940424 6.20346,6.230175 2.555984,1.682605 5.471326,2.903931 8.409344,3.522932 1.584676,0.333871 1.742764,0.347087 4.452542,0.372227 1.826779,0.01695 2.860636,-0.05193 4.189415,-0.279093 z"
       id="path4"
       transform="translate(-5,-10)" /></g><g
     id="g3"
     transform="translate(4.2905515,28.873043)"
     style="fill:#33691b;fill-opacity:1"><path
       d="m 91.172,19.93 -1.8398,-0.23047 c -10,-1.3008 -22.488,-2.9219 -31.828,6.4297 h -0.0039 c -7.7617,7.6992 -11.527,18.559 -10.191,29.41 -0.53125,0.91016 -1,1.8398 -1.4883,2.7891 -0.14844,-0.35156 -0.30078,-0.69922 -0.46094,-1 -0.89062,-1.9102 -1.9336,-3.75 -3.1094,-5.5 0.89453,-8.1602 -1.9766,-16.289 -7.8008,-22.078 -7.1484,-7.1602 -16.621,-5.9297 -24.23,-4.9414 l -1.3906,0.17188 c -0.46484,0.05859 -0.87891,0.33984 -1.1094,0.75 -0.21875,0.38672 -0.25,0.85547 -0.078125,1.2695 0.51172,1.2109 1,2.3711 1.4492,3.5117 2.2383,5.5312 4.1797,10.309 9.1992,15.328 4.9844,5.0312 11.742,7.9023 18.82,8 -1.4844,-2.9414 -3.1914,-5.7617 -5.1094,-8.4414 -3.707,-5.125 -8.1445,-9.6758 -13.18,-13.508 5.0195,2.8789 9.5469,6.5391 13.418,10.84 3,3.3359 5.5781,7.0312 7.6719,11 0.875,1.582 1.6289,3.2266 2.2617,4.918 0.35938,1 0.67969,2 1,3 0.19922,0.67969 0.33984,1.3594 0.48047,2.0508 h -0.0039 c -1.5039,4.3867 -2.3477,8.9688 -2.5078,13.602 h -7.9102 c -1.3828,0 -2.5,1.1172 -2.5,2.5 0,1.3789 1.1172,2.5 2.5,2.5 h 22.461 c 1.3789,0 2.5,-1.1211 2.5,-2.5 0,-1.3828 -1.1211,-2.5 -2.5,-2.5 h -7.6914 c -1.0977,-6.7422 -0.51562,-13.648 1.6992,-20.109 1.7031,-4.5 4.0586,-8.7188 7,-12.52 4.6758,-5.9727 10.664,-10.789 17.5,-14.07 -6.4922,3.9531 -12.043,9.2773 -16.27,15.598 -2.3125,3.4766 -4.1953,7.2227 -5.6094,11.152 h 0.87109 c 9.4258,0.0078 18.465,-3.7461 25.109,-10.43 6.6094,-6.6133 9.168,-12.922 12.129,-20.23 0.60937,-1.5195 1.2383,-3.0703 1.9297,-4.6797 0.19141,-0.43359 0.16016,-0.92578 -0.07813,-1.332 -0.23047,-0.41016 -0.64453,-0.69141 -1.1094,-0.75 z"
       id="path1-1"
       style="fill:#33691b;fill-opacity:1" /><text
       x="0"
       y="117.5"
       font-size="5px"
       font-weight="bold"
       font-family="'Arbeit Regular', Helvetica, Arial-Unicode, Arial, Sans-serif"
       fill="#000000"
       id="text1"
       style="fill:#33691b;fill-opacity:1"
       clip-path="url(#clipPath12)">Created by Saiful Rizal</text><text
       x="0"
       y="122.5"
       font-size="5px"
       font-weight="bold"
       font-family="'Arbeit Regular', Helvetica, Arial-Unicode, Arial, Sans-serif"
       fill="#000000"
       id="text2"
       style="fill:#33691b;fill-opacity:1"
       clip-path="url(#clipPath21)">from Noun Project</text></g><g
     id="g22"
     transform="matrix(0.4651819,0,0,0.33374349,26.097913,20.094127)"
     clip-path="url(#clipPath27)"
     style="fill:#33691b;fill-opacity:1"><path
       d="M 83.164,29.918 V 18.137 L 50,2.969 16.828,18.137 l 0.01172,11.781 15.504,7.0938 -15.516,7.0977 0.02344,11.793 15.492,7.0859 -15.516,7.1016 0.02344,11.773 33.148,15.168 33.172,-15.164 V 70.09 l -15.516,-7.0977 15.512,-7.0938 V 44.1055 L 67.6546,37.0117 Z M 77.8515,19.137 49.9995,31.875 22.1515,19.141 49.9995,6.407 Z m -57.891,2.4375 30.039,13.738 30.039,-13.742 v 6.3359 l -30.039,13.742 -30.035,-13.738 z m 30.039,72.02 -30.027,-13.734 -0.01563,-6.3398 30.043,13.738 30.047,-13.75 v 6.3438 z m 27.84,-22.5 -27.84,12.727 -27.844,-12.727 13.938,-6.3867 13.906,6.3594 13.906,-6.3555 z m -27.84,-3.4648 -30.027,-13.734 -0.01563,-6.3477 30.043,13.738 30.047,-13.742 v 6.3516 z m 27.852,-22.52 -27.852,12.742 -27.855,-12.742 13.957,-6.3789 13.898,6.3555 13.906,-6.3555 z"
       id="path1-0"
       style="fill:#33691b;fill-opacity:1" /><text
       x="0"
       y="117.5"
       font-size="5px"
       font-weight="bold"
       font-family="'Arbeit Regular', Helvetica, Arial-Unicode, Arial, Sans-serif"
       fill="#000000"
       id="text1-5"
       style="fill:#33691b;fill-opacity:1">Created by miftah</text><text
       x="0"
       y="122.5"
       font-size="5px"
       font-weight="bold"
       font-family="'Arbeit Regular', Helvetica, Arial-Unicode, Arial, Sans-serif"
       fill="#000000"
       id="text2-7"
       style="fill:#33691b;fill-opacity:1">from Noun Project</text></g></svg>
