<?xml version="1.0" encoding="utf-8"?>
<!-- Generator: Adobe Illustrator 17.1.0, SVG Export Plug-In . SVG Version: 6.00 Build 0)  -->
<!DOCTYPE svg PUBLIC "-//W3C//DTD SVG 1.1//EN" "http://www.w3.org/Graphics/SVG/1.1/DTD/svg11.dtd">
<svg version="1.1" id="Ebene_1" xmlns="http://www.w3.org/2000/svg" xmlns:xlink="http://www.w3.org/1999/xlink" x="0px" y="0px"
	 viewBox="0 0 841.9 226.5" enable-background="new 0 0 841.9 226.5" xml:space="preserve">
<rect x="24" y="20.7" fill="#FFFFFF" width="168.7" height="168.5"/>
<path fill="#387033" d="M147.1,126.2h-12.5c-3.8,0-6.9,3.1-6.9,6.9v31.9c0,3.8,3.1,6.9,6.9,6.9h12.5c7.6,0,13.1-1.9,16.5-5.8
	c3.5-3.8,5.2-9.5,5.2-17c0-7.5-1.7-13.2-5.2-17C160.2,128.1,154.6,126.2,147.1,126.2"/>
<path fill="#387033" d="M13.9,21.3V193c0,3.8,3.1,6.9,6.9,6.9h171.6c3.8,0,6.9-3.1,6.9-6.9V21.3c0-3.8-3.1-6.9-6.9-6.9H20.8
	C17,14.5,13.9,17.5,13.9,21.3 M139.2,27.7h13.1c2.9,0,5.5,1.9,6.5,4.6l21,61.5c1.5,4.4-1.8,9.1-6.5,9.1h-4.5c-3,0-5.7-2-6.6-4.9
	l-2.2-7.2c-0.9-2.9-3.5-4.9-6.6-4.9h-15.4c-3,0-5.7,2-6.5,4.8l-2.2,7.3c-0.9,2.9-3.5,4.8-6.6,4.8h-4.5c-4.7,0-8-4.6-6.5-9.1
	l21.1-61.5C133.7,29.6,136.3,27.7,139.2,27.7 M91.8,186.6h-11c-2.5,0-4.7-1.3-5.9-3.4l-21.4-37.3l-5.7-11.2h-0.1l0.5,13.9v31.1
	c0,3.8-3.1,6.9-6.9,6.9h-3.6c-3.8,0-6.9-3.1-6.9-6.9v-61.5c0-3.8,3.1-6.9,6.9-6.9h11c2.5,0,4.7,1.3,5.9,3.4L75.9,152l5.7,11.2h0.1
	l-0.5-13.9v-31.1c0-3.8,3.1-6.9,6.9-6.9h3.6c3.8,0,6.9,3.1,6.9,6.9v61.5C98.6,183.5,95.6,186.6,91.8,186.6 M91.8,103H37.6
	c-3.8,0-6.9-3.1-6.9-6.9V34.6c0-3.8,3.1-6.9,6.9-6.9h3.2c3.8,0,6.9,3.1,6.9,6.9v46.4c0,3.8,3.1,6.9,6.9,6.9h37.3
	c3.8,0,6.9,3.1,6.9,6.9v1.5C98.6,99.9,95.6,103,91.8,103 M178.5,176.8c-7.4,6.5-18.1,9.8-32.1,9.8h-30.9c-3.8,0-6.9-3.1-6.9-6.9
	v-61.5c0-3.8,3.1-6.9,6.9-6.9h30.9c14,0,24.6,3.3,32.1,9.8c7.4,6.5,11.1,15.8,11.1,27.8C189.6,161,185.9,170.3,178.5,176.8"/>
<path fill="#387033" d="M144.6,48.2c0.5-1.6,2.9-1.6,3.4,0l3.3,9.9l4.2,12.6c0.4,1.2-0.5,2.4-1.7,2.4h-7.5h-7.5
	c-1.2,0-2.1-1.2-1.7-2.4l4.2-12.6L144.6,48.2z"/>
<polygon points="249.7,83.2 281.4,83.2 281.4,95.9 233.3,95.9 233.3,32.8 249.7,32.8 "/>
<polygon points="289.4,95.9 289.4,32.8 338.6,32.8 338.6,45.5 305.9,45.5 305.9,58.3 331.9,58.3 331.9,70.3 305.9,70.3 305.9,83.2 
	339.8,83.2 339.8,95.9 "/>
<path d="M348.3,95.9V32.8H379c7.8,0.1,13.5,1.5,17.2,4.4c3.7,2.9,5.5,7.1,5.5,12.6c0,3.6-1.1,6.6-3.2,9.2s-5.3,4.2-9.7,4.9v0.1
	c4.8,0.6,8.5,2.3,10.9,5c2.4,2.7,3.6,6,3.6,9.8c0,5.4-1.9,9.6-5.7,12.6c-3.8,3-9.6,4.4-17.2,4.4H348.3z M364.2,58.6h12
	c5.9,0,8.8-2.3,8.8-6.9c0-4.6-2.9-6.9-8.8-6.9h-12V58.6z M364.2,84.3h13.5c3,0,5.2-0.6,6.7-1.8c1.5-1.2,2.2-3,2.2-5.3
	c0-2.2-0.7-3.9-2.2-5.1c-1.5-1.2-3.7-1.8-6.7-1.8h-13.5V84.3z"/>
<polygon points="412.3,95.9 412.3,32.8 461.5,32.8 461.5,45.5 428.8,45.5 428.8,58.3 454.8,58.3 454.8,70.3 428.8,70.3 428.8,83.2 
	462.7,83.2 462.7,95.9 "/>
<polygon points="528.1,32.8 528.1,95.9 509.9,95.9 490.3,61.8 485.5,52.4 485.4,52.4 485.8,64.1 485.8,95.9 471.2,95.9 471.2,32.8 
	489.5,32.8 509.1,66.9 513.9,76.3 514,76.3 513.6,64.6 513.6,32.8 "/>
<path d="M567.4,32.8c9.9,0,17.5,2.7,22.7,8.2c5.3,5.5,7.9,13.3,7.9,23.3c0,10.1-2.6,17.9-7.9,23.3c-5.3,5.5-12.8,8.2-22.7,8.2h-26.8
	V32.8H567.4z M565.8,83.5c5.4,0,9.3-1.6,11.7-4.8c2.5-3.2,3.7-8,3.7-14.3c0-6.3-1.2-11.1-3.7-14.3c-2.5-3.2-6.4-4.8-11.7-4.8h-8.7
	v38.3H565.8z"/>
<rect x="607.9" y="32.8" width="16.5" height="63.1"/>
<path d="M663,96.9c-5.6,0-10.6-1.2-15-3.7c-4.4-2.5-7.8-6.2-10.2-11c-2.4-4.8-3.6-10.7-3.6-17.7c0-6.8,1.3-12.7,3.8-17.5
	c2.6-4.8,6.2-8.6,11-11.2c4.8-2.6,10.3-3.9,16.8-3.9c7.1,0,12.9,1.3,17.3,3.9c4.4,2.6,7.8,6.7,10.2,12.3l-15.2,6
	c-0.8-3.3-2.3-5.6-4.4-7.1c-2.1-1.5-4.7-2.2-7.8-2.2c-3.1,0-5.8,0.7-8,2.2c-2.2,1.5-3.9,3.7-5.1,6.6c-1.1,2.9-1.7,6.5-1.7,10.8
	c0,4.5,0.6,8.2,1.8,11.2c1.2,3,2.9,5.2,5.3,6.6c2.3,1.4,5.2,2.2,8.7,2.2c1.8,0,3.5-0.2,5.1-0.7c1.5-0.4,2.9-1.1,4-2
	c1.1-0.9,2-1.9,2.7-3.3c0.6-1.3,1-2.9,1-4.6v-1H665v-11h28.4v34h-11.2L681,81.1l2.7,2.3c-1.3,4.3-3.7,7.7-7.2,10
	C672.9,95.7,668.5,96.9,663,96.9"/>
<polygon points="704.6,95.9 704.6,32.8 753.7,32.8 753.7,45.5 721,45.5 721,58.3 747,58.3 747,70.3 721,70.3 721,83.2 755,83.2 
	755,95.9 "/>
<path d="M793.6,32.8c7.5,0,13.4,1.8,17.6,5.3c4.2,3.5,6.3,8.2,6.3,14.1c0,6.4-2.1,11.4-6.2,14.7c-4.1,3.4-10,5.1-17.5,5.1l-1.5,0.9
	h-12.5v23h-16.2V32.8H793.6z M791.3,61.2c3.2,0,5.6-0.6,7.2-1.9c1.6-1.3,2.4-3.3,2.4-6.1c0-2.7-0.8-4.7-2.4-6
	c-1.6-1.3-4-1.9-7.2-1.9h-11.7v16H791.3z M801,64.6l20.2,31.3H803l-16.2-27.6L801,64.6z"/>
<path d="M290.7,180.9h-16.9l-4.4-14.2h-21.6l-4.5,14.2h-16.5l22.2-63.1h19.7L290.7,180.9z M250.8,155.5h15.5l-7.7-25.5L250.8,155.5z
	"/>
<polygon points="341.7,117.8 341.7,130.5 321.2,130.5 321.2,180.9 304.7,180.9 304.7,130.5 284.1,130.5 284.1,117.8 "/>
<polygon points="366.1,168.2 397.8,168.2 397.8,180.9 349.7,180.9 349.7,117.8 366.1,117.8 "/>
<path d="M463.2,180.9h-16.9l-4.4-14.2h-21.6l-4.5,14.2h-16.5l22.2-63.1h19.7L463.2,180.9z M423.3,155.5h15.5l-7.7-25.5L423.3,155.5z
	"/>
<path d="M493.5,116.8c5.9,0,11,0.9,15.5,2.7c4.5,1.8,8.4,4.5,11.7,8l-7.9,10.6c-2.7-2.9-5.7-5-8.8-6.5c-3.2-1.4-6.7-2.2-10.8-2.2
	c-2.4,0-4.3,0.3-5.7,0.8c-1.5,0.5-2.5,1.2-3.2,2.1c-0.6,0.9-1,1.9-1,3.1c0,1.3,0.6,2.5,1.9,3.4c1.2,0.9,3.3,1.7,6.1,2.3l10.6,2.4
	c6.3,1.5,10.9,3.6,13.9,6.4c2.9,2.8,4.4,6.5,4.4,11.2c0,4.5-1.1,8.2-3.4,11.3c-2.3,3.1-5.5,5.4-9.5,7c-4,1.6-8.6,2.3-13.8,2.3
	c-4.2,0-8.2-0.5-12.1-1.4c-3.8-0.9-7.3-2.2-10.3-4c-3.1-1.7-5.6-3.7-7.7-5.9l7.9-11c1.6,1.8,3.6,3.5,5.9,4.9
	c2.3,1.4,4.9,2.6,7.7,3.4c2.8,0.8,5.6,1.2,8.5,1.2c2.2,0,4.1-0.2,5.6-0.7c1.5-0.4,2.6-1.1,3.3-2c0.7-0.9,1.1-1.9,1.1-3.2
	c0-1.3-0.5-2.5-1.4-3.4c-1-0.9-2.8-1.7-5.5-2.3l-11.7-2.6c-3.6-0.8-6.7-1.9-9.5-3.3c-2.8-1.4-5-3.2-6.6-5.5
	c-1.6-2.3-2.4-5.2-2.4-8.8c0-4,1.1-7.5,3.3-10.6c2.2-3.1,5.3-5.5,9.4-7.3C483,117.7,487.8,116.8,493.5,116.8"/>
<g>
	<path d="M669.7,145.1c-1.4,0-2.8-0.4-4-1.1c-1.2-0.7-2.2-1.8-2.9-3.1c-0.7-1.4-1.1-3-1.1-4.9c0-1.9,0.4-3.6,1.2-4.9
		c0.8-1.4,1.8-2.4,3.1-3.1c1.3-0.7,2.6-1.1,4.1-1.1s2.7,0.4,3.8,1.1c1.1,0.7,1.8,1.7,2.1,3l-0.4,0.2v-12.1h2.8v25.6h-2.5l-0.2-4.2
		l0.4-0.2c-0.2,1-0.6,1.9-1.2,2.6c-0.6,0.7-1.4,1.3-2.3,1.6C671.6,144.9,670.7,145.1,669.7,145.1z M669.9,142.7
		c1.1,0,2.1-0.3,2.9-0.8c0.8-0.6,1.5-1.4,1.9-2.4c0.5-1,0.7-2.3,0.7-3.7c0-1.3-0.2-2.5-0.7-3.4c-0.5-1-1.1-1.7-1.9-2.2
		c-0.8-0.5-1.7-0.8-2.8-0.8c-1.8,0-3.2,0.6-4.1,1.8c-1,1.2-1.5,2.8-1.5,4.8c0,2,0.5,3.6,1.4,4.8
		C666.9,142.1,668.2,142.7,669.9,142.7z"/>
	<path d="M692.1,145.1c-1.7,0-3.1-0.4-4.4-1.1c-1.3-0.7-2.3-1.8-3-3.1c-0.7-1.4-1.1-3-1.1-4.9s0.4-3.5,1.1-4.9
		c0.7-1.4,1.7-2.4,3-3.1c1.3-0.7,2.7-1.1,4.3-1.1c1.6,0,3,0.4,4.2,1.1c1.2,0.7,2,1.7,2.6,2.9c0.6,1.2,0.9,2.6,0.9,4
		c0,0.4,0,0.8,0,1.1c0,0.3-0.1,0.6-0.1,0.9h-14.2v-2.5h12.9l-1.4,0.3c0-1.7-0.5-3-1.4-3.9c-0.9-0.9-2.1-1.4-3.6-1.4
		c-1.1,0-2.1,0.3-3,0.8c-0.8,0.5-1.5,1.3-1.9,2.3c-0.5,1-0.7,2.2-0.7,3.6c0,1.4,0.2,2.6,0.7,3.6s1.1,1.8,2,2.3
		c0.9,0.5,1.9,0.8,3.1,0.8c1.3,0,2.3-0.2,3.1-0.7c0.8-0.5,1.5-1.2,1.9-2l2.2,1.3c-0.4,0.8-1,1.5-1.7,2.1c-0.7,0.6-1.5,1-2.4,1.3
		C694.3,145,693.3,145.1,692.1,145.1z"/>
	<path d="M705,144.8v-17.5h2.3l0.4,2.9c0.5-1.1,1.2-1.9,2.2-2.4c0.9-0.5,2.1-0.8,3.5-0.8c0.3,0,0.6,0,1,0.1c0.4,0,0.7,0.1,0.9,0.3
		l-0.5,2.6c-0.3-0.1-0.5-0.2-0.8-0.2c-0.3,0-0.7-0.1-1.3-0.1c-0.7,0-1.5,0.2-2.2,0.6s-1.3,1.1-1.8,1.9s-0.7,1.9-0.7,3.2v9.5H705z"/>
	<path d="M749.2,121.6v23.1h-3.5l-9.7-15.5l-2.5-4.3h0l0.1,3.5v16.3H731v-23.1h3.5l9.6,15.4l2.5,4.5h0l-0.1-3.5v-16.3H749.2z"/>
	<path d="M766.3,133.4c0-1.3-0.4-2.3-1.1-3c-0.7-0.7-1.7-1.1-3-1.1c-1.2,0-2.2,0.3-3.1,0.8c-0.8,0.5-1.5,1.4-1.9,2.5l-2.3-1.4
		c0.5-1.3,1.3-2.4,2.6-3.2c1.3-0.8,2.8-1.2,4.7-1.2c1.3,0,2.4,0.2,3.4,0.6c1,0.4,1.8,1.1,2.4,2c0.6,0.9,0.9,2,0.9,3.4v8.5
		c0,0.8,0.4,1.3,1.3,1.3c0.4,0,0.9-0.1,1.3-0.2l-0.1,2.2c-0.5,0.2-1.1,0.4-1.8,0.4c-0.7,0-1.3-0.1-1.8-0.4c-0.5-0.3-1-0.6-1.3-1.2
		c-0.3-0.5-0.5-1.2-0.5-2v-0.4l0.7,0.1c-0.3,0.9-0.8,1.7-1.4,2.2c-0.7,0.6-1.4,1-2.3,1.3c-0.8,0.3-1.7,0.4-2.5,0.4
		c-1,0-2-0.2-2.9-0.5c-0.9-0.4-1.6-0.9-2.1-1.6c-0.5-0.7-0.8-1.6-0.8-2.6c0-1.3,0.4-2.4,1.3-3.2c0.9-0.9,2.1-1.4,3.7-1.7l6.9-1.4
		v2.3l-5.6,1.2c-1.1,0.2-2,0.6-2.6,1c-0.6,0.4-0.8,1-0.8,1.8c0,0.7,0.3,1.3,0.9,1.8c0.6,0.5,1.4,0.7,2.4,0.7c0.7,0,1.3-0.1,1.9-0.3
		c0.6-0.2,1.2-0.4,1.7-0.8c0.5-0.4,0.9-0.8,1.2-1.4c0.3-0.5,0.4-1.2,0.4-1.9V133.4z"/>
	<path d="M785.7,127.2v2.4H773v-2.4H785.7z M779.3,122.3v17.7c0,0.9,0.2,1.5,0.7,1.9c0.5,0.4,1.1,0.6,1.9,0.6c0.7,0,1.3-0.1,1.8-0.4
		c0.5-0.2,0.9-0.5,1.3-0.9l1,2.3c-0.5,0.5-1.2,0.9-1.9,1.2s-1.6,0.4-2.5,0.4c-0.9,0-1.7-0.2-2.5-0.5s-1.4-0.8-1.8-1.5
		c-0.5-0.7-0.7-1.6-0.7-2.7V123L779.3,122.3z"/>
	<path d="M796.2,145.1c-1.1,0-2.2-0.2-3.2-0.6c-1-0.4-1.8-1.1-2.4-2.1c-0.6-0.9-0.9-2.2-0.9-3.7v-11.5h2.8V138c0,1.8,0.4,3,1.2,3.7
		s1.9,1,3.3,1c0.7,0,1.3-0.1,1.9-0.3c0.6-0.2,1.2-0.6,1.7-1.1c0.5-0.5,0.9-1.1,1.2-1.8c0.3-0.7,0.4-1.6,0.4-2.7v-9.5h2.8v17.5h-2.5
		l-0.2-2.7c-0.6,1.1-1.4,1.8-2.5,2.3C798.8,144.9,797.6,145.1,796.2,145.1z"/>
	<path d="M811.5,144.8v-17.5h2.3l0.4,2.9c0.5-1.1,1.2-1.9,2.2-2.4c0.9-0.5,2.1-0.8,3.5-0.8c0.3,0,0.6,0,1,0.1c0.4,0,0.7,0.1,0.9,0.3
		l-0.5,2.6c-0.3-0.1-0.5-0.2-0.8-0.2c-0.3,0-0.7-0.1-1.3-0.1c-0.7,0-1.5,0.2-2.2,0.6s-1.3,1.1-1.8,1.9s-0.7,1.9-0.7,3.2v9.5H811.5z"
		/>
	<path d="M598.6,156.7c3.6,0,6.5,1,8.5,3c2.1,2,3.1,4.9,3.1,8.6s-1,6.6-3.1,8.6c-2.1,2-4.9,3-8.5,3h-7.5v-23.1H598.6z M598.9,177.2
		c2.6,0,4.7-0.8,6.2-2.4c1.5-1.6,2.2-3.8,2.2-6.6c0-2.8-0.7-5-2.2-6.6c-1.5-1.6-3.5-2.4-6.2-2.4h-4.9v17.9H598.9z"/>
	<path d="M623.2,180.2c-1.7,0-3.1-0.4-4.4-1.1c-1.3-0.7-2.3-1.8-3-3.1c-0.7-1.4-1.1-3-1.1-4.9s0.4-3.5,1.1-4.9
		c0.7-1.4,1.7-2.4,3-3.1c1.3-0.7,2.7-1.1,4.3-1.1c1.6,0,3,0.4,4.2,1.1s2,1.7,2.6,2.9c0.6,1.2,0.9,2.6,0.9,4c0,0.4,0,0.8,0,1.1
		c0,0.3-0.1,0.6-0.1,0.9h-14.2v-2.5h12.9l-1.4,0.3c0-1.7-0.5-3-1.4-3.9c-0.9-0.9-2.1-1.4-3.6-1.4c-1.1,0-2.1,0.3-3,0.8
		c-0.8,0.5-1.5,1.3-1.9,2.3c-0.5,1-0.7,2.2-0.7,3.6c0,1.4,0.2,2.6,0.7,3.6s1.1,1.8,2,2.3c0.9,0.5,1.9,0.8,3.1,0.8
		c1.3,0,2.3-0.2,3.1-0.7c0.8-0.5,1.5-1.2,1.9-2l2.2,1.3c-0.4,0.8-1,1.5-1.7,2.1c-0.7,0.6-1.5,1-2.4,1.3
		C625.4,180,624.3,180.2,623.2,180.2z"/>
	<path d="M642.5,180.2c-1.1,0-2.2-0.2-3.2-0.6c-1-0.4-1.8-1.1-2.4-2.1c-0.6-0.9-0.9-2.2-0.9-3.7v-11.5h2.8v10.8c0,1.8,0.4,3,1.2,3.7
		s1.9,1,3.3,1c0.7,0,1.3-0.1,1.9-0.3c0.6-0.2,1.2-0.6,1.7-1.1c0.5-0.5,0.9-1.1,1.2-1.8c0.3-0.7,0.4-1.6,0.4-2.7v-9.5h2.8v17.5h-2.5
		l-0.2-2.7c-0.6,1.1-1.4,1.8-2.5,2.3C645.1,179.9,643.9,180.2,642.5,180.2z"/>
	<path d="M668.3,162.3v2.4h-12.7v-2.4H668.3z M661.9,157.3V175c0,0.9,0.2,1.5,0.7,1.9c0.5,0.4,1.1,0.6,1.9,0.6
		c0.7,0,1.3-0.1,1.8-0.4c0.5-0.2,0.9-0.5,1.3-0.9l1,2.3c-0.5,0.5-1.2,0.9-1.9,1.2s-1.6,0.4-2.5,0.4c-0.9,0-1.7-0.2-2.5-0.5
		s-1.4-0.8-1.8-1.5c-0.5-0.7-0.7-1.6-0.7-2.7v-17.4L661.9,157.3z"/>
	<path d="M678.7,180.2c-1.7,0-3.3-0.4-4.7-1.1s-2.5-1.8-3.3-3.1l2.4-1.7c0.5,1.1,1.3,1.9,2.3,2.5c1,0.6,2.2,0.9,3.6,0.9
		c1.2,0,2.2-0.2,2.9-0.7c0.7-0.5,1.1-1.1,1.1-1.9c0-0.5-0.2-0.9-0.5-1.3c-0.3-0.4-0.9-0.7-1.8-0.9l-4.2-0.9
		c-1.7-0.4-2.9-0.9-3.7-1.8c-0.7-0.8-1.1-1.8-1.1-3c0-1,0.3-1.8,0.8-2.6c0.5-0.8,1.3-1.4,2.3-1.9c1-0.5,2.2-0.7,3.6-0.7
		c1.7,0,3.2,0.3,4.4,1s2.1,1.6,2.7,2.9l-2.3,1.5c-0.4-1-1-1.8-1.9-2.3c-0.9-0.5-1.8-0.7-2.8-0.7c-0.8,0-1.6,0.1-2.2,0.4
		c-0.6,0.2-1.1,0.6-1.4,1c-0.3,0.4-0.5,0.9-0.5,1.4c0,0.5,0.2,1,0.5,1.4s1,0.7,2,0.9l4.4,0.9c1.6,0.3,2.8,0.9,3.4,1.6
		c0.7,0.7,1,1.7,1,2.7c0,1.1-0.3,2.1-0.9,2.9s-1.4,1.5-2.5,1.9C681.3,180,680.1,180.2,678.7,180.2z"/>
	<path d="M698.2,161.9c1.2,0,2.3,0.2,3.2,0.6c0.9,0.4,1.7,0.9,2.4,1.6s1.2,1.5,1.6,2.5l-2.7,1.3c-0.4-1.1-0.9-2-1.7-2.6
		c-0.8-0.6-1.7-0.9-3-0.9c-1.2,0-2.2,0.3-3,0.8c-0.8,0.5-1.5,1.3-1.9,2.3c-0.4,1-0.7,2.2-0.7,3.6c0,1.4,0.2,2.6,0.7,3.6
		s1.1,1.8,1.9,2.3c0.8,0.5,1.8,0.8,3,0.8c0.9,0,1.7-0.1,2.4-0.4c0.7-0.3,1.2-0.7,1.6-1.2c0.4-0.5,0.7-1.2,0.9-2l2.6,0.9
		c-0.4,1.1-0.9,2-1.6,2.8c-0.7,0.8-1.5,1.4-2.5,1.8c-1,0.4-2.1,0.6-3.3,0.6c-1.6,0-3.1-0.4-4.4-1.1c-1.3-0.7-2.3-1.8-3-3.1
		c-0.7-1.4-1.1-3-1.1-4.9s0.4-3.5,1.1-4.9c0.7-1.4,1.7-2.4,3-3.1C695.1,162.3,696.5,161.9,698.2,161.9z"/>
	<path d="M710.6,179.8v-25.6h2.8v10.7c0.6-1.1,1.4-1.8,2.4-2.3s2.1-0.7,3.3-0.7c1.3,0,2.4,0.2,3.4,0.7c1,0.5,1.9,1.2,2.5,2.2
		c0.6,1,0.9,2.2,0.9,3.8v11.2h-2.8v-10.2c0-1.9-0.4-3.3-1.2-4s-1.9-1.1-3.1-1.1c-0.8,0-1.7,0.2-2.5,0.6c-0.8,0.4-1.5,1-2.1,1.9
		c-0.5,0.9-0.8,2.1-0.8,3.6v9.3H710.6z"/>
	<path d="M734.9,154.2v21.1c0,0.9,0.2,1.5,0.5,1.8c0.3,0.3,0.9,0.5,1.6,0.5c0.5,0,0.9,0,1.2-0.1c0.3-0.1,0.7-0.2,1.2-0.4l-0.5,2.5
		c-0.4,0.2-0.8,0.3-1.2,0.4c-0.4,0.1-0.9,0.1-1.4,0.1c-1.4,0-2.5-0.4-3.2-1.2s-1-2-1-3.5v-21.2H734.9z"/>
	<path d="M753.2,168.5c0-1.3-0.4-2.3-1.1-3c-0.7-0.7-1.7-1.1-3-1.1c-1.2,0-2.2,0.3-3.1,0.8c-0.8,0.5-1.5,1.4-1.9,2.5l-2.3-1.4
		c0.5-1.3,1.3-2.4,2.6-3.2c1.3-0.8,2.8-1.2,4.7-1.2c1.3,0,2.4,0.2,3.4,0.6c1,0.4,1.8,1.1,2.4,2c0.6,0.9,0.9,2,0.9,3.4v8.5
		c0,0.8,0.4,1.3,1.3,1.3c0.4,0,0.9-0.1,1.3-0.2l-0.1,2.2c-0.5,0.2-1.1,0.4-1.8,0.4c-0.7,0-1.3-0.1-1.8-0.4c-0.5-0.3-1-0.6-1.3-1.2
		c-0.3-0.5-0.5-1.2-0.5-2v-0.4l0.7,0.1c-0.3,0.9-0.8,1.7-1.4,2.2c-0.7,0.6-1.4,1-2.3,1.3c-0.8,0.3-1.7,0.4-2.5,0.4
		c-1,0-2-0.2-2.9-0.5c-0.9-0.4-1.6-0.9-2.1-1.6c-0.5-0.7-0.8-1.6-0.8-2.6c0-1.3,0.4-2.4,1.3-3.2c0.9-0.9,2.1-1.4,3.7-1.7l6.9-1.4
		v2.3l-5.6,1.2c-1.1,0.2-2,0.6-2.6,1c-0.6,0.4-0.8,1-0.8,1.8c0,0.7,0.3,1.3,0.9,1.8c0.6,0.5,1.4,0.7,2.4,0.7c0.7,0,1.3-0.1,1.9-0.3
		c0.6-0.2,1.2-0.4,1.7-0.8c0.5-0.4,0.9-0.8,1.2-1.4c0.3-0.5,0.4-1.2,0.4-1.9V168.5z"/>
	<path d="M762.8,179.8v-17.5h2.5l0.2,3.9l-0.5-0.4c0.4-0.9,0.9-1.7,1.5-2.3c0.6-0.6,1.4-1,2.2-1.2c0.8-0.3,1.7-0.4,2.6-0.4
		c1.3,0,2.4,0.2,3.4,0.7c1,0.5,1.9,1.2,2.5,2.2c0.6,1,0.9,2.2,0.9,3.8v11.2h-2.8v-10.2c0-1.9-0.4-3.3-1.2-4s-1.9-1.1-3.1-1.1
		c-0.8,0-1.7,0.2-2.5,0.6c-0.8,0.4-1.5,1-2.1,1.9c-0.5,0.9-0.8,2.1-0.8,3.6v9.3H762.8z"/>
	<path d="M791.4,180.2c-1.4,0-2.8-0.4-4-1.1c-1.2-0.7-2.2-1.8-2.9-3.1c-0.7-1.4-1.1-3-1.1-4.9c0-1.9,0.4-3.6,1.2-4.9
		c0.8-1.4,1.8-2.4,3.1-3.1c1.3-0.7,2.6-1.1,4.1-1.1s2.7,0.4,3.8,1.1s1.8,1.7,2.1,3l-0.4,0.2v-12.1h2.8v25.6h-2.5l-0.2-4.2l0.4-0.2
		c-0.2,1-0.6,1.9-1.2,2.6c-0.6,0.7-1.4,1.3-2.3,1.6C793.3,180,792.4,180.2,791.4,180.2z M791.7,177.7c1.1,0,2.1-0.3,2.9-0.8
		c0.8-0.6,1.5-1.4,1.9-2.4c0.5-1,0.7-2.3,0.7-3.7c0-1.3-0.2-2.5-0.7-3.4c-0.5-1-1.1-1.7-1.9-2.2c-0.8-0.5-1.7-0.8-2.8-0.8
		c-1.8,0-3.2,0.6-4.1,1.8c-1,1.2-1.5,2.8-1.5,4.8c0,2,0.5,3.6,1.4,4.8C788.6,177.1,789.9,177.7,791.7,177.7z"/>
	<path d="M812.8,180.2c-1.7,0-3.3-0.4-4.7-1.1s-2.5-1.8-3.3-3.1l2.4-1.7c0.5,1.1,1.3,1.9,2.3,2.5c1,0.6,2.2,0.9,3.6,0.9
		c1.2,0,2.2-0.2,2.9-0.7c0.7-0.5,1.1-1.1,1.1-1.9c0-0.5-0.2-0.9-0.5-1.3c-0.3-0.4-0.9-0.7-1.8-0.9l-4.2-0.9
		c-1.7-0.4-2.9-0.9-3.7-1.8c-0.7-0.8-1.1-1.8-1.1-3c0-1,0.3-1.8,0.8-2.6c0.5-0.8,1.3-1.4,2.3-1.9c1-0.5,2.2-0.7,3.6-0.7
		c1.7,0,3.2,0.3,4.4,1s2.1,1.6,2.7,2.9l-2.3,1.5c-0.4-1-1-1.8-1.9-2.3c-0.9-0.5-1.8-0.7-2.8-0.7c-0.8,0-1.6,0.1-2.2,0.4
		c-0.6,0.2-1.1,0.6-1.4,1c-0.3,0.4-0.5,0.9-0.5,1.4c0,0.5,0.2,1,0.5,1.4s1,0.7,2,0.9l4.4,0.9c1.6,0.3,2.8,0.9,3.4,1.6
		c0.7,0.7,1,1.7,1,2.7c0,1.1-0.3,2.1-0.9,2.9s-1.4,1.5-2.5,1.9C815.4,180,814.2,180.2,812.8,180.2z"/>
</g>
</svg>
