<?xml version="1.0" encoding="utf-8"?>
<!-- Generator: Adobe Illustrator 17.1.0, SVG Export Plug-In . SVG Version: 6.00 Build 0)  -->
<!DOCTYPE svg PUBLIC "-//W3C//DTD SVG 1.1//EN" "http://www.w3.org/Graphics/SVG/1.1/DTD/svg11.dtd">
<svg version="1.1" id="Ebene_1" xmlns="http://www.w3.org/2000/svg" xmlns:xlink="http://www.w3.org/1999/xlink" x="0px" y="0px"
	 viewBox="0 0 151 148.9" enable-background="new 0 0 151 148.9" xml:space="preserve">
<rect x="16.8" y="15.7" fill="#FFFFFF" width="118.2" height="115.5"/>
<path fill="#387033" d="M103.2,87.5h-8.6c-2.6,0-4.7,2.1-4.7,4.7V114c0,2.6,2.1,4.7,4.7,4.7h8.6c5.2,0,8.9-1.3,11.3-3.9
	c2.4-2.6,3.6-6.5,3.6-11.7c0-5.1-1.2-9-3.6-11.7C112.2,88.8,108.4,87.5,103.2,87.5"/>
<path fill="#387033" d="M12.1,15.7v117.5c0,2.6,2.1,4.7,4.7,4.7h117.5c2.6,0,4.7-2.1,4.7-4.7V15.7c0-2.6-2.1-4.7-4.7-4.7H16.8
	C14.2,11,12.1,13.1,12.1,15.7 M97.8,20.1h8.9c2,0,3.8,1.3,4.4,3.2l14.3,42.1c1,3-1.2,6.2-4.4,6.2h-3.1c-2.1,0-3.9-1.4-4.5-3.3
	l-1.5-4.9c-0.6-2-2.4-3.3-4.5-3.3H97c-2.1,0-3.9,1.3-4.5,3.3l-1.5,5c-0.6,2-2.4,3.3-4.5,3.3h-3.1c-3.2,0-5.5-3.2-4.4-6.2l14.4-42.1
	C94,21.4,95.8,20.1,97.8,20.1 M65.4,128.8h-7.5c-1.7,0-3.2-0.9-4.1-2.4L39.1,101l-3.9-7.6h-0.1l0.3,9.5v21.3c0,2.6-2.1,4.7-4.7,4.7
	h-2.5c-2.6,0-4.7-2.1-4.7-4.7V82c0-2.6,2.1-4.7,4.7-4.7h7.5c1.7,0,3.2,0.9,4.1,2.4l14.7,25.5l3.9,7.6h0.1l-0.3-9.5V82
	c0-2.6,2.1-4.7,4.7-4.7h2.5c2.6,0,4.7,2.1,4.7,4.7v42.1C70,126.7,67.9,128.8,65.4,128.8 M65.4,71.6H28.3c-2.6,0-4.7-2.1-4.7-4.7
	V24.8c0-2.6,2.1-4.7,4.7-4.7h2.2c2.6,0,4.7,2.1,4.7,4.7v31.7c0,2.6,2.1,4.7,4.7,4.7h25.5c2.6,0,4.7,2.1,4.7,4.7v1
	C70,69.5,67.9,71.6,65.4,71.6 M124.7,122.1c-5.1,4.5-12.4,6.7-21.9,6.7H81.5c-2.6,0-4.7-2.1-4.7-4.7V82c0-2.6,2.1-4.7,4.7-4.7h21.2
	c9.6,0,16.9,2.2,21.9,6.7c5.1,4.5,7.6,10.8,7.6,19C132.3,111.3,129.8,117.7,124.7,122.1"/>
<path fill="#387033" d="M101.5,34.1c0.4-1.1,2-1.1,2.3,0l2.3,6.8l2.9,8.6c0.3,0.8-0.3,1.6-1.2,1.6h-5.2h-5.2c-0.8,0-1.4-0.8-1.2-1.6
	l2.9-8.6L101.5,34.1z"/>
</svg>
